<?xml version="1.0" encoding="UTF-8" standalone="no"?>
<!-- Created with Inkscape (http://www.inkscape.org/) -->

<svg
   width="209.35526mm"
   height="85.648209mm"
   viewBox="0 0 209.35526 85.648209"
   version="1.1"
   id="svg5"
   xmlns="http://www.w3.org/2000/svg"
   xmlns:svg="http://www.w3.org/2000/svg">
  <defs
     id="defs2" />
  <g
     id="layer1"
     transform="translate(-0.48351295,-0.92050019)">
    <g
       id="g434"
       transform="matrix(2.3250213,0,0,2.1454149,-138.80995,-242.59175)"
       style="fill:#ffffff">
      <path
         style="fill:#ffffff;stroke-width:0.266522"
         id="path201"
         d="m 63.35245,153.42508 c 0.756304,-1.33393 1.555401,-2.65495 2.490545,-3.87248 1.118224,-1.30153 2.479445,-2.32632 3.961159,-3.17564 0.300537,-0.16335 0.606934,-0.31639 0.901624,-0.49005 0.734094,-0.43263 1.335551,-0.86541 2.056738,-1.32157 1.091854,-0.69062 2.224228,-1.30543 3.356312,-1.9265 2.450345,-1.22231 4.646833,-2.82701 6.730171,-4.58702 1.948238,-1.62379 3.225832,-3.64914 4.553183,-5.76728 0.726017,-1.35161 1.615111,-2.60487 2.415798,-3.90943 0.931594,-1.51784 1.769898,-3.10296 2.613505,-4.67041 0.890634,-1.76165 1.851728,-3.4915 2.659615,-5.29404 1.022924,-2.28232 -0.1116,0.10294 0.804594,-1.7961 0.1033,-0.17272 0.19316,-0.35421 0.30991,-0.51816 0.0857,-0.12035 0.258997,-0.35193 0.366137,-0.25015 0.0482,0.0458 0.11357,0.22227 0.0545,0.19178 -3.188382,-1.64464 -3.996819,-2.92621 -3.165482,-1.67216 0.209847,0.88441 0.291207,1.78407 0.552107,2.66012 0.318787,1.0174 0.642427,2.016 1.191264,2.93461 0.658314,0.86695 0.948434,1.90891 1.358221,2.89631 0.770407,1.43825 1.570901,2.85826 2.339268,4.29765 0.806754,1.58039 1.545671,3.19383 2.335421,4.78271 0.75426,1.30918 1.48273,2.63419 2.27734,3.91966 0.66323,1.10801 1.41507,2.15525 2.2744,3.11882 0.80921,0.87028 1.72977,1.63974 2.67996,2.35182 1.20561,0.88136 2.43621,1.72828 3.68043,2.55418 2.09416,1.34735 7.99779,4.46511 1.69407,0.9662 -0.20946,-0.11626 0.40712,0.25269 0.60633,0.3857 0.52835,0.35274 0.6544,0.46486 1.16652,0.86057 1.0217,0.87474 2.05348,1.74295 3.01416,2.68523 0.50106,0.59731 0.9807,1.20993 1.5011,1.79109 0,0 3.62856,1.5234 3.62856,1.5234 v 0 c -0.52615,-0.57829 -1.04285,-1.16813 -1.49037,-1.81049 -0.96525,-0.96497 -2.02197,-1.83005 -3.03774,-2.74064 -0.55443,-0.45434 -1.11964,-0.92808 -1.73961,-1.29359 -1.30442,-0.76906 -2.61299,-1.5316 -3.93657,-2.26725 -0.9456,-0.52556 1.87144,1.08589 2.80241,1.63688 0.18814,0.11135 -0.38247,-0.21189 -0.57371,-0.31783 -1.24133,-0.81635 -2.47862,-1.64185 -3.66541,-2.53579 -0.98309,-0.64868 -1.87143,-1.46228 -2.71894,-2.27615 -0.87759,-0.93569 -1.64329,-1.95505 -2.30915,-3.0529 -0.79065,-1.29616 -1.5597,-2.60316 -2.33496,-3.90913 -0.80354,-1.58418 -1.51539,-3.21161 -2.32749,-4.7916 -0.76895,-1.40997 -1.50272,-2.83779 -2.28695,-4.23918 -0.455107,-0.98048 -0.675684,-2.06708 -1.333951,-2.95132 -0.20698,-0.30562 -0.38548,-0.54418 -0.544427,-0.87982 -0.29683,-0.6268 -0.430607,-1.315 -0.680637,-1.95873 -0.0706,-0.20709 -0.245367,-0.70076 -0.289847,-0.91123 -0.12215,-0.57808 -0.11854,-1.17627 -0.21579,-1.75747 -0.319837,-1.41517 -3.116052,-3.29132 -4.044766,-2.21498 -0.23205,0.26893 -0.3498,0.57192 -0.508927,0.88976 -0.493897,1.14803 -0.24372,0.53901 -0.743667,1.82985 -0.757807,1.81747 -1.697371,3.55516 -2.567835,5.31924 -0.833537,1.56527 -1.686821,3.11784 -2.631735,4.61995 -0.27575,0.43836 -0.579637,0.8586 -0.856447,1.2963 -0.543274,0.85908 -1.033664,1.75079 -1.582041,2.60678 -1.320401,2.02858 -2.654605,4.07076 -4.514423,5.65921 -2.054798,1.75987 -4.255226,3.31854 -6.687661,4.52332 -0.507757,0.28026 -1.795191,0.98653 -2.292278,1.27845 -1.364341,0.80124 -2.651715,1.73319 -4.075406,2.43278 -1.528681,0.87306 -2.924125,1.94415 -4.070859,3.28986 -0.941374,1.24709 -1.726998,2.59604 -2.590105,3.89704 0,0 3.441862,1.95982 3.441862,1.95982 z" />
      <path
         style="fill:#ffffff;stroke-width:0.266522"
         id="path203"
         d="m 105.98994,136.52037 c 1.04351,-0.95706 2.13227,-1.8509 3.267,-2.69886 1.59559,-1.27582 3.23041,-2.5012 4.82922,-3.77231 1.52788,-1.16798 2.89961,-2.51181 4.24966,-3.875 1.17586,-1.17989 1.98542,-2.60522 2.73875,-4.07205 0.81709,-1.29199 1.47771,-2.64814 1.97138,-4.092 0.22326,-0.51101 0.23103,-1.08858 0.43438,-1.60463 0.10186,-0.25851 0.20969,-0.3924 0.31377,-0.10364 -5.31302,-3.0252 -3.54929,-2.82163 -3.0953,-1.33264 0.12642,0.41464 0.20308,0.84139 0.29176,1.2651 0.28026,1.36899 0.27721,2.77001 0.52427,4.14279 0.43269,1.9848 1.38841,3.79061 2.3717,5.54962 1.19171,1.93056 2.42695,3.83082 3.77716,5.65448 0.76279,1.15894 1.7721,2.12907 2.56087,3.26679 0.15948,0.23001 0.77771,1.23612 0.93347,1.48791 0.6283,0.97506 1.22972,1.96681 1.82158,2.9642 0.57123,0.93548 1.28635,1.76922 1.91352,2.66606 0.58023,1.07804 1.57167,1.74369 2.52095,2.46118 0.84937,0.67172 1.73551,1.30946 2.53236,2.04398 0.5852,0.67611 1.16318,1.35239 1.79213,1.98933 0.73939,0.7128 1.57049,1.32 2.40004,1.92217 0.6928,0.51355 1.39492,1.01494 2.12459,1.475 0,0 3.69186,1.42248 3.69186,1.42248 v 0 c -0.75859,-0.43071 -1.47227,-0.93652 -2.17191,-1.45637 -0.82002,-0.5932 -1.63653,-1.18927 -2.39936,-1.85473 -0.63699,-0.62928 -1.25075,-1.27348 -1.79168,-1.9889 -0.74359,-0.80535 -1.69938,-1.39891 -2.53532,-2.10319 -0.92328,-0.70398 -1.97834,-1.29176 -2.56098,-2.33643 -0.58558,-0.91878 -1.3236,-1.72438 -1.91228,-2.64154 -0.59683,-1.01814 -1.22102,-2.02002 -1.87878,-3.00024 -0.31722,-0.50359 -0.60823,-1.0237 -0.93573,-1.52068 -0.77246,-1.1722 -1.83245,-2.11736 -2.60771,-3.29005 -1.3575,-1.80687 -2.5569,-3.71667 -3.7923,-5.60783 -0.97066,-1.71347 -1.8971,-3.47101 -2.34751,-5.40316 -0.29107,-1.36004 -0.25468,-2.75288 -0.48737,-4.12364 -0.0966,-0.54352 -0.21347,-1.07341 -0.3355,-1.61022 -0.0236,-0.10387 0.0355,-0.25526 -0.0527,-0.31516 -1.14234,-0.77614 -2.36781,-1.42251 -3.55171,-2.13377 -0.83122,0.38872 -0.69612,1.48129 -0.9694,2.23369 -0.46505,1.43152 -1.12495,2.77116 -1.91617,4.05272 -0.74904,1.42233 -1.53402,2.82487 -2.68354,3.9724 -1.31886,1.3698 -2.67898,2.69813 -4.19967,3.84811 -1.5998,1.26281 -3.2135,2.5081 -4.81826,3.76458 -1.16677,0.85755 -2.30966,1.74136 -3.41835,2.6725 0,0 3.40109,2.08195 3.40109,2.08195 z" />
    </g>
  </g>
</svg>
